<?xml version="1.0" standalone="no"?>
<svg xmlns="http://www.w3.org/2000/svg" width="413.4061073041284" height="227.8592323041284" viewBox="0 0 413.4061073041284 227.8592323041284"><g fill="#fcb045" color="#fcb045" transform="translate(0 0) scale(7.1206011)"><svg width="32.0" height="32.0" x="0.0" y="0.0" viewBox="0 0 32 32"><path d="M29.931,3.703L26.255,5.21L25.07,5.763C23.427,4.222,19.615,3.5,16,3.5c-4.726,0-9.8,1.228-9.907,3.916C6.092,7.444,6.083,7.471,6.083,7.5c0,0.542,0.202,1.025,0.562,1.452l8.855,9.741v5.815h-0.001c-0.008,0.758-1.119,1.991-3.167,1.991c1.475,0,2.167-1.094,2.169-1.935C11.914,24.788,10,25.567,10,26.5c0,1.105,2.687,2,6,2c3.314,0,6-0.895,6-2c0-0.933-1.913-1.712-4.5-1.935c0.001,0.841,0.694,1.935,2.169,1.935c-2.049,0-3.16-1.233-3.167-1.991c-0.001,0-0.001,0-0.002,0v-5.815l8.828-9.711V8.98c-0.001,0-0.002,0.001-0.002,0.002c0.375-0.435,0.591-0.926,0.591-1.482c0-0.029-0.009-0.056-0.01-0.084c-0.021-0.508-0.219-0.963-0.559-1.369l1.064-0.497L29.931,3.703zM7.468,8.371C7.219,8.095,7.083,7.803,7.083,7.5c0-1.657,3.992-3,8.917-3c3.572,0,6.646,0.709,8.069,1.73l-5.932,2.767c-0.491-0.701-1.781-0.825-3.024-0.245c-0.838,0.391-1.438,1.004-1.677,1.616c-2.812-0.285-5.046-1.019-5.934-1.958L7.468,8.371zM13.266,11.346l-2.094,1.1L9.503,10.61C10.612,10.97,11.914,11.205,13.266,11.346zM19.96,13.401C19.758,12.896,18.073,12.5,16,12.5s-3.758,0.396-3.96,0.901l-0.86-0.946l2.3-0.943c0.461,0.749,1.785,0.893,3.061,0.299c0.216-0.101,0.41-0.221,0.593-0.347c1.917-0.08,3.819-0.353,5.364-0.854L19.96,13.401zM24.917,7.5c0,0.303-0.137,0.596-0.386,0.872l-0.033,0.037c-0.934,0.989-3.358,1.747-6.377,1.996c0.191-0.364,0.264-0.735,0.175-1.068l6.096-2.843C24.726,6.809,24.917,7.146,24.917,7.5z"></path></svg></g><path fill="#a19d94" fill-rule="nonzero" d="M4.69 21.09L4.69 21.09Q4.12 21.19 3.67 21.32Q3.22 21.45 2.56 21.45L2.56 21.45Q1.84 21.45 1.45 21.04Q1.05 20.63 1.05 20.12L1.05 20.12Q1.05 19.71 1.19 19.05Q1.33 18.40 1.33 17.73L1.33 17.73Q1.19 15.21 0.97 12.74Q0.74 10.27 0.53 8.22Q0.31 6.17 0.16 4.72Q0 3.26 0 2.73L0 2.73Q0 2.38 0.18 2.08Q0.35 1.78 0.66 1.54Q0.98 1.31 1.40 1.18Q1.82 1.05 2.29 1.05L2.29 1.05Q3.20 1.05 3.63 1.34Q4.06 1.62 4.16 2.25L4.16 2.25Q4.71 6.45 4.95 9.95Q5.20 13.46 5.29 16.52L5.29 16.52Q5.29 16.97 5.54 17.21Q5.78 17.44 6.17 17.44L6.17 17.44Q6.95 17.44 7.75 17.35Q8.55 17.27 9.36 17.17Q10.16 17.07 10.95 16.98Q11.74 16.89 12.48 16.89L12.48 16.89Q12.97 16.89 13.27 17.01Q13.57 17.13 13.74 17.32Q13.91 17.52 13.96 17.76Q14.00 18.01 14.00 18.24L14.00 18.24Q14.00 18.61 13.93 18.98Q13.85 19.36 13.65 19.66Q13.46 19.96 13.13 20.17Q12.79 20.37 12.29 20.41L12.29 20.41Q9.88 20.64 7.90 20.76Q5.92 20.88 4.69 21.09ZM14.14 15.88L13.89 15.88Q13.55 15.88 13.39 15.55Q13.22 15.21 13.22 14.61L13.22 14.61Q13.22 14.51 13.22 14.38Q13.22 14.26 13.26 13.89L13.26 13.89Q13.32 12.48 14.65 12.25L14.65 12.25L15.10 12.21Q15.55 12.15 15.80 11.92Q16.05 11.70 16.17 11.29L16.17 11.29Q16.50 10.18 16.84 9.04Q17.17 7.91 17.54 6.80L17.54 6.80Q17.73 6.17 17.94 5.46Q18.14 4.75 18.39 4.04Q18.63 3.34 18.96 2.66Q19.28 1.97 19.69 1.41L19.69 1.41Q19.86 1.17 20.18 0.92Q20.49 0.66 20.89 0.46Q21.29 0.25 21.75 0.13Q22.21 0 22.66 0L22.66 0Q23.24 0 23.81 0.37L23.81 0.37Q24.57 0.90 25.31 1.64Q26.05 2.38 26.97 3.54Q27.89 4.69 29.10 6.32Q30.31 7.95 32.01 10.25L32.01 10.25Q32.27 10.55 32.55 10.69Q32.83 10.84 33.22 10.84L33.22 10.84L34.34 10.84Q35.02 10.84 35.40 11.16Q35.78 11.48 35.78 12.05L35.78 12.05Q35.78 12.17 35.77 12.32Q35.76 12.48 35.70 12.64L35.70 12.64L35.33 13.73Q35.29 13.89 35.27 14.00Q35.25 14.12 35.25 14.24L35.25 14.24Q35.25 14.65 35.53 15.08L35.53 15.08L37.62 17.93Q37.97 18.46 37.97 18.93L37.97 18.93Q37.97 19.63 37.17 20.16L37.17 20.16L36.43 20.68Q36.15 20.86 35.91 20.96Q35.66 21.05 35.41 21.05L35.41 21.05Q35.06 21.05 34.76 20.85Q34.45 20.64 34.18 20.29L34.18 20.29Q33.24 18.96 32.29 17.68Q31.35 16.39 30.37 15.12L30.37 15.12Q29.92 14.49 29.18 14.49L29.18 14.49Q26.80 14.59 24.46 14.76Q22.13 14.92 19.79 15.16L19.79 15.16Q18.95 15.23 18.73 16.05L18.73 16.05L17.85 19.28Q17.50 20.57 16.29 20.57L16.29 20.57L15.98 20.57L15.37 20.49Q14.71 20.43 14.37 20.08Q14.02 19.73 14.02 19.16L14.02 19.16Q14.02 19.04 14.04 18.91Q14.06 18.77 14.10 18.61L14.10 18.61Q14.20 18.22 14.31 17.81Q14.41 17.40 14.53 17.01L14.53 17.01Q14.57 16.86 14.59 16.73Q14.61 16.60 14.61 16.48L14.61 16.48Q14.61 15.88 14.14 15.88L14.14 15.88ZM23.18 5.57L23.18 5.57Q22.99 5.39 22.83 5.27Q22.68 5.16 22.50 5.16L22.50 5.16Q22.01 5.16 21.82 5.84L21.82 5.84Q21.43 6.99 21.06 8.12Q20.70 9.24 20.33 10.41L20.33 10.41Q20.29 10.51 20.29 10.59Q20.29 10.66 20.29 10.76L20.29 10.76Q20.29 11.48 21.05 11.48L21.05 11.48L21.25 11.48Q22.42 11.33 23.59 11.24Q24.77 11.15 25.94 11.09L25.94 11.09Q26.33 11.05 26.55 10.89Q26.78 10.72 26.78 10.45L26.78 10.45Q26.78 10.20 26.54 9.84L26.54 9.84Q25.72 8.75 24.89 7.69Q24.06 6.62 23.18 5.57Z" transform="translate(242.86 0) scale(4.492)"></path><path fill="#a19d94" fill-rule="nonzero" d="M9.12 3.57L9.12 3.57Q8.03 3.57 7.10 4.09Q6.17 4.61 5.48 5.52Q4.79 6.43 4.39 7.66Q4.00 8.89 4.00 10.29L4.00 10.29Q4.00 11.74 4.66 12.96Q5.31 14.18 6.47 15.09Q7.64 16.00 9.21 16.50Q10.78 17.01 12.64 17.01L12.64 17.01Q13.98 17.01 15.19 16.77Q16.39 16.52 17.29 16.11Q18.18 15.70 18.71 15.15Q19.24 14.59 19.24 13.96L19.24 13.96Q19.24 13.48 19.06 13.15Q18.89 12.83 18.66 12.57Q18.44 12.30 18.26 12.04Q18.09 11.78 18.09 11.37L18.09 11.37Q18.09 10.98 18.28 10.63Q18.48 10.27 18.82 10Q19.16 9.73 19.60 9.57Q20.04 9.41 20.51 9.41L20.51 9.41Q21.07 9.41 21.57 9.71Q22.07 10 22.43 10.52Q22.79 11.04 23.00 11.73Q23.20 12.42 23.20 13.20L23.20 13.20Q23.20 14.79 22.36 16.14Q21.52 17.50 20.04 18.48Q18.55 19.45 16.52 20.01Q14.49 20.57 12.11 20.57L12.11 20.57Q9.47 20.57 7.25 19.85Q5.02 19.14 3.41 17.87Q1.80 16.60 0.90 14.86Q0 13.13 0 11.05L0 11.05Q0 8.79 0.79 6.78Q1.58 4.77 2.95 3.26Q4.32 1.76 6.14 0.88Q7.97 0 10.04 0L10.04 0Q10.96 0 11.73 0.21Q12.50 0.41 13.07 0.78Q13.63 1.15 13.96 1.65Q14.28 2.15 14.28 2.73L14.28 2.73Q14.28 3.20 14.07 3.62Q13.87 4.04 13.54 4.37Q13.20 4.69 12.76 4.88Q12.32 5.08 11.84 5.08L11.84 5.08Q11.33 5.08 11.03 4.84Q10.72 4.61 10.47 4.33Q10.21 4.04 9.92 3.81Q9.63 3.57 9.12 3.57ZM22.44 16.72L22.19 16.72Q21.86 16.72 21.69 16.39Q21.52 16.05 21.52 15.45L21.52 15.45Q21.52 15.35 21.52 15.22Q21.52 15.10 21.56 14.73L21.56 14.73Q21.62 13.32 22.95 13.09L22.95 13.09L23.40 13.05Q23.85 12.99 24.10 12.76Q24.36 12.54 24.47 12.13L24.47 12.13Q24.80 11.02 25.14 9.88Q25.47 8.75 25.84 7.64L25.84 7.64Q26.04 7.01 26.24 6.30Q26.45 5.59 26.69 4.88Q26.93 4.18 27.26 3.50Q27.58 2.81 27.99 2.25L27.99 2.25Q28.16 2.01 28.48 1.76Q28.79 1.50 29.19 1.30Q29.59 1.09 30.05 0.97Q30.51 0.84 30.96 0.84L30.96 0.84Q31.54 0.84 32.11 1.21L32.11 1.21Q32.87 1.74 33.61 2.48Q34.36 3.22 35.27 4.38Q36.19 5.53 37.40 7.16Q38.61 8.79 40.31 11.09L40.31 11.09Q40.57 11.39 40.85 11.53Q41.13 11.68 41.52 11.68L41.52 11.68L42.64 11.68Q43.32 11.68 43.70 12.00Q44.08 12.32 44.08 12.89L44.08 12.89Q44.08 13.01 44.07 13.16Q44.06 13.32 44.00 13.48L44.00 13.48L43.63 14.57Q43.59 14.73 43.57 14.84Q43.55 14.96 43.55 15.08L43.55 15.08Q43.55 15.49 43.83 15.92L43.83 15.92L45.92 18.77Q46.27 19.30 46.27 19.77L46.27 19.77Q46.27 20.47 45.47 21.00L45.47 21.00L44.73 21.52Q44.45 21.70 44.21 21.80Q43.96 21.89 43.71 21.89L43.71 21.89Q43.36 21.89 43.06 21.69Q42.75 21.48 42.48 21.13L42.48 21.13Q41.54 19.80 40.60 18.52Q39.65 17.23 38.67 15.96L38.67 15.96Q38.22 15.33 37.48 15.33L37.48 15.33Q35.10 15.43 32.76 15.60Q30.43 15.76 28.09 16.00L28.09 16.00Q27.25 16.07 27.03 16.89L27.03 16.89L26.15 20.12Q25.80 21.41 24.59 21.41L24.59 21.41L24.28 21.41L23.67 21.33Q23.01 21.27 22.67 20.92Q22.32 20.57 22.32 20L22.32 20Q22.32 19.88 22.34 19.75Q22.36 19.61 22.40 19.45L22.40 19.45Q22.50 19.06 22.61 18.65Q22.71 18.24 22.83 17.85L22.83 17.85Q22.87 17.70 22.89 17.57Q22.91 17.44 22.91 17.32L22.91 17.32Q22.91 16.72 22.44 16.72L22.44 16.72ZM31.48 6.41L31.48 6.41Q31.29 6.23 31.13 6.11Q30.98 6.00 30.80 6.00L30.80 6.00Q30.31 6.00 30.12 6.68L30.12 6.68Q29.73 7.83 29.37 8.96Q29.00 10.08 28.63 11.25L28.63 11.25Q28.59 11.35 28.59 11.43Q28.59 11.50 28.59 11.60L28.59 11.60Q28.59 12.32 29.36 12.32L29.36 12.32L29.55 12.32Q30.72 12.17 31.89 12.08Q33.07 11.99 34.24 11.93L34.24 11.93Q34.63 11.89 34.85 11.73Q35.08 11.56 35.08 11.29L35.08 11.29Q35.08 11.04 34.84 10.68L34.84 10.68Q34.02 9.59 33.19 8.53Q32.36 7.46 31.48 6.41ZM48.63 22.32L48.63 22.32Q48.32 18.73 47.82 15.21Q47.32 11.70 46.62 8.13L46.62 8.13Q46.56 7.89 46.47 7.74Q46.39 7.60 46.23 7.60L46.23 7.60Q46.11 7.60 45.97 7.62Q45.82 7.64 45.66 7.64L45.66 7.64Q44.92 7.64 44.51 7.27Q44.10 6.89 44.10 6.33L44.10 6.33Q44.10 5.68 44.64 5.08Q45.18 4.47 46.05 3.94Q46.93 3.40 48.07 2.95Q49.20 2.50 50.40 2.18Q51.60 1.86 52.77 1.67Q53.95 1.48 54.90 1.48L54.90 1.48Q56.64 1.48 57.90 1.91Q59.16 2.34 59.97 3.05Q60.78 3.75 61.16 4.67Q61.54 5.59 61.54 6.56L61.54 6.56Q61.54 7.54 61.12 8.70Q60.70 9.86 59.71 10.92L59.71 10.92Q59.59 11.05 59.55 11.14Q59.51 11.23 59.51 11.33L59.51 11.33Q59.51 11.50 59.90 11.56L59.90 11.56Q61.04 11.66 62.10 12.11Q63.16 12.56 63.96 13.27Q64.77 13.98 65.25 14.94Q65.74 15.90 65.74 16.97L65.74 16.97Q65.74 18.48 65.17 19.60Q64.59 20.72 63.57 21.46Q62.56 22.21 61.16 22.57Q59.77 22.93 58.14 22.93L58.14 22.93Q56.88 22.93 55.60 22.71Q54.32 22.48 53.11 22.13L53.11 22.13Q53.03 22.09 52.87 22.09L52.87 22.09Q52.54 22.09 52.34 22.48L52.34 22.48Q52.01 23.14 51.40 23.52Q50.78 23.89 50.16 23.89L50.16 23.89Q49.59 23.89 49.16 23.53Q48.73 23.16 48.63 22.32ZM52.42 14.88L52.42 14.88Q51.99 15.04 51.99 15.49L51.99 15.49Q51.99 15.55 52.04 15.92Q52.09 16.29 52.17 16.72L52.17 16.72Q52.25 17.23 52.34 17.81L52.34 17.81Q52.40 18.32 52.87 18.44L52.87 18.44Q53.48 18.61 54.20 18.80Q54.92 18.98 55.70 19.14Q56.48 19.30 57.29 19.39Q58.09 19.49 58.83 19.49L58.83 19.49Q59.39 19.49 59.92 19.37Q60.45 19.24 60.86 18.96Q61.27 18.69 61.51 18.27Q61.76 17.85 61.76 17.25L61.76 17.25Q61.76 16.37 61.27 15.76Q60.78 15.16 60.04 14.79Q59.30 14.41 58.42 14.25Q57.54 14.08 56.76 14.08L56.76 14.08Q55.70 14.08 54.62 14.32Q53.54 14.55 52.42 14.88ZM50.92 5.57L50.92 5.57Q50.70 5.63 50.59 5.70Q50.47 5.78 50.47 6.00L50.47 6.00Q50.47 6.21 50.56 6.77Q50.64 7.32 50.77 8.03Q50.90 8.73 51.04 9.48Q51.19 10.23 51.31 10.84L51.31 10.84Q51.35 11.21 51.47 11.35Q51.60 11.48 51.80 11.48L51.80 11.48Q51.91 11.48 52.10 11.44Q52.29 11.39 52.60 11.29L52.60 11.29Q53.40 11.04 54.29 10.71Q55.18 10.39 55.91 9.94Q56.64 9.49 57.12 8.88Q57.60 8.26 57.60 7.44L57.60 7.44Q57.60 6.80 57.32 6.36Q57.05 5.92 56.56 5.63Q56.07 5.35 55.43 5.23Q54.79 5.12 54.02 5.12L54.02 5.12Q53.24 5.12 52.45 5.23Q51.66 5.35 50.92 5.57ZM66.48 16.72L66.23 16.72Q65.90 16.72 65.73 16.39Q65.57 16.05 65.57 15.45L65.57 15.45Q65.57 15.35 65.57 15.22Q65.57 15.10 65.61 14.73L65.61 14.73Q65.66 13.32 66.99 13.09L66.99 13.09L67.44 13.05Q67.89 12.99 68.14 12.76Q68.40 12.54 68.52 12.13L68.52 12.13Q68.85 11.02 69.18 9.88Q69.51 8.75 69.88 7.64L69.88 7.64Q70.08 7.01 70.28 6.30Q70.49 5.59 70.73 4.88Q70.98 4.18 71.30 3.50Q71.62 2.81 72.03 2.25L72.03 2.25Q72.21 2.01 72.52 1.76Q72.83 1.50 73.23 1.30Q73.63 1.09 74.09 0.97Q74.55 0.84 75 0.84L75 0.84Q75.59 0.84 76.15 1.21L76.15 1.21Q76.91 1.74 77.66 2.48Q78.40 3.22 79.32 4.38Q80.23 5.53 81.45 7.16Q82.66 8.79 84.36 11.09L84.36 11.09Q84.61 11.39 84.89 11.53Q85.18 11.68 85.57 11.68L85.57 11.68L86.68 11.68Q87.36 11.68 87.74 12.00Q88.13 12.32 88.13 12.89L88.13 12.89Q88.13 13.01 88.12 13.16Q88.11 13.32 88.05 13.48L88.05 13.48L87.68 14.57Q87.64 14.73 87.62 14.84Q87.60 14.96 87.60 15.08L87.60 15.08Q87.60 15.49 87.87 15.92L87.87 15.92L89.96 18.77Q90.31 19.30 90.31 19.77L90.31 19.77Q90.31 20.47 89.51 21.00L89.51 21.00L88.77 21.52Q88.50 21.70 88.25 21.80Q88.01 21.89 87.75 21.89L87.75 21.89Q87.40 21.89 87.10 21.69Q86.80 21.48 86.52 21.13L86.52 21.13Q85.59 19.80 84.64 18.52Q83.69 17.23 82.71 15.96L82.71 15.96Q82.27 15.33 81.52 15.33L81.52 15.33Q79.14 15.43 76.81 15.60Q74.47 15.76 72.13 16.00L72.13 16.00Q71.29 16.07 71.07 16.89L71.07 16.89L70.20 20.12Q69.84 21.41 68.63 21.41L68.63 21.41L68.32 21.41L67.71 21.33Q67.05 21.27 66.71 20.92Q66.37 20.57 66.37 20L66.37 20Q66.37 19.88 66.39 19.75Q66.41 19.61 66.45 19.45L66.45 19.45Q66.54 19.06 66.65 18.65Q66.76 18.24 66.88 17.85L66.88 17.85Q66.91 17.70 66.93 17.57Q66.95 17.44 66.95 17.32L66.95 17.32Q66.95 16.72 66.48 16.72L66.48 16.72ZM75.53 6.41L75.53 6.41Q75.33 6.23 75.18 6.11Q75.02 6.00 74.84 6.00L74.84 6.00Q74.36 6.00 74.16 6.68L74.16 6.68Q73.77 7.83 73.41 8.96Q73.05 10.08 72.68 11.25L72.68 11.25Q72.64 11.35 72.64 11.43Q72.64 11.50 72.64 11.60L72.64 11.60Q72.64 12.32 73.40 12.32L73.40 12.32L73.59 12.32Q74.77 12.17 75.94 12.08Q77.11 11.99 78.28 11.93L78.28 11.93Q78.67 11.89 78.90 11.73Q79.12 11.56 79.12 11.29L79.12 11.29Q79.12 11.04 78.89 10.68L78.89 10.68Q78.07 9.59 77.24 8.53Q76.41 7.46 75.53 6.41ZM94.67 10.84L94.67 10.84Q94.67 11.66 94.75 12.54Q94.82 13.42 94.93 14.30Q95.04 15.18 95.12 16.06Q95.20 16.95 95.20 17.81L95.20 17.81Q95.20 18.77 94.53 19.37Q93.87 19.96 92.75 19.96L92.75 19.96Q92.21 19.96 91.73 19.63Q91.25 19.30 91.19 18.57L91.19 18.57Q91.09 17.66 91.01 16.51Q90.92 15.37 90.85 14.15Q90.78 12.93 90.72 11.69Q90.66 10.45 90.63 9.31Q90.59 8.16 90.57 7.20Q90.55 6.23 90.55 5.57L90.55 5.57Q90.55 4.98 90.63 4.45Q90.70 3.93 90.96 3.54Q91.21 3.14 91.65 2.91Q92.09 2.68 92.83 2.68L92.83 2.68Q93.40 2.68 94.10 3.08Q94.80 3.48 95.62 4.16Q96.43 4.84 97.34 5.73Q98.26 6.62 99.24 7.60Q100.21 8.57 101.24 9.58Q102.27 10.59 103.32 11.48L103.32 11.48Q103.79 11.89 104.38 12.44Q104.98 12.99 105.62 13.48Q106.25 13.96 106.88 14.31Q107.52 14.65 108.11 14.65L108.11 14.65Q108.65 14.65 108.82 14.17Q108.98 13.69 108.98 12.64L108.98 12.64Q108.98 11.86 108.86 10.70Q108.73 9.55 108.50 8.24Q108.26 6.93 107.91 5.62Q107.56 4.30 107.11 3.20L107.11 3.20Q107.01 2.97 106.92 2.74Q106.84 2.52 106.84 2.25L106.84 2.25Q106.84 1.80 107.13 1.45Q107.42 1.09 107.83 0.86Q108.24 0.63 108.69 0.50Q109.14 0.37 109.43 0.37L109.43 0.37Q110.08 0.37 110.59 1.06Q111.09 1.76 111.47 2.86Q111.86 3.96 112.11 5.34Q112.36 6.72 112.53 8.11Q112.70 9.49 112.76 10.75Q112.83 12.01 112.83 12.85L112.83 12.85Q112.83 14.43 112.71 15.63Q112.58 16.84 112.18 17.66Q111.78 18.48 111.02 18.90Q110.25 19.32 108.98 19.32L108.98 19.32Q107.97 19.32 106.86 18.90Q105.74 18.48 104.60 17.76Q103.46 17.05 102.29 16.13Q101.13 15.21 100.02 14.22Q98.91 13.22 97.86 12.23Q96.82 11.23 95.92 10.37L95.92 10.37Q95.55 10 95.23 10L95.23 10Q94.96 10 94.81 10.22Q94.67 10.45 94.67 10.84ZM117.83 15.80L117.83 15.80Q117.77 15.80 117.65 15.82Q117.52 15.84 117.37 15.86Q117.23 15.88 117.09 15.90Q116.95 15.92 116.88 15.92L116.88 15.92Q116.33 15.92 115.92 15.46Q115.51 15 115.51 14.24L115.51 14.24Q115.51 13.73 115.84 13.26Q116.17 12.79 116.88 12.48L116.88 12.48Q117.09 12.38 117.22 12.26Q117.34 12.13 117.34 11.89L117.34 11.89Q117.34 11.27 117.31 10.56Q117.29 9.84 117.23 8.89L117.23 8.89Q117.21 8.69 117.10 8.52Q116.99 8.34 116.87 8.12Q116.74 7.89 116.64 7.62Q116.54 7.34 116.54 6.93L116.54 6.93Q116.54 6.56 116.65 6.08Q116.76 5.61 117.10 5.19Q117.44 4.77 118.06 4.48Q118.67 4.20 119.67 4.20L119.67 4.20Q120.08 4.20 120.35 4.28Q120.63 4.36 120.83 4.46Q121.04 4.57 121.20 4.65Q121.37 4.73 121.54 4.73L121.54 4.73Q121.86 4.73 122.79 4.61Q123.73 4.49 125.05 4.28Q126.37 4.06 127.96 3.79Q129.55 3.52 131.19 3.19Q132.83 2.87 134.39 2.54Q135.96 2.21 137.23 1.89L137.23 1.89Q137.62 1.80 137.91 1.80L137.91 1.80Q138.32 1.80 138.56 1.98Q138.81 2.17 138.93 2.44Q139.04 2.71 139.07 3.06Q139.10 3.40 139.10 3.69L139.10 3.69Q139.10 4.20 138.76 4.64Q138.42 5.08 137.64 5.33L137.64 5.33Q135.70 5.90 133.74 6.32Q131.78 6.74 129.79 7.08Q127.79 7.42 125.78 7.70Q123.77 7.97 121.78 8.24L121.78 8.24Q121.50 8.28 121.37 8.45Q121.23 8.61 121.23 8.89L121.23 8.89L121.23 9.69Q121.23 10.02 121.25 10.37Q121.27 10.72 121.34 11.02Q121.41 11.31 121.52 11.49Q121.64 11.68 121.84 11.68L121.84 11.68Q122.30 11.68 123.29 11.48Q124.28 11.29 125.52 11.01Q126.76 10.72 128.12 10.38Q129.47 10.04 130.68 9.76Q131.89 9.47 132.81 9.28Q133.73 9.08 134.10 9.08L134.10 9.08Q134.65 9.08 134.93 9.48Q135.21 9.88 135.31 10.49L135.31 10.49Q135.31 10.59 135.33 10.66Q135.35 10.74 135.35 10.84L135.35 10.84Q135.35 11.41 135.01 11.88Q134.67 12.36 133.79 12.60L133.79 12.60Q133.55 12.68 132.85 12.84Q132.15 13.01 131.19 13.23Q130.23 13.46 129.12 13.71Q128.01 13.96 126.93 14.21Q125.86 14.45 124.93 14.68Q124.00 14.90 123.42 15.04L123.42 15.04Q122.89 15.18 122.78 15.25Q122.68 15.33 122.68 15.45L122.68 15.45Q122.71 15.88 123.12 16.25Q123.52 16.62 124.13 16.93Q124.75 17.25 125.52 17.50Q126.29 17.75 127.12 17.92Q127.95 18.09 128.75 18.18Q129.55 18.28 130.23 18.28L130.23 18.28Q130.53 18.28 131.07 18.28Q131.62 18.28 132.28 18.25Q132.93 18.22 133.62 18.16Q134.32 18.11 134.87 18.00Q135.43 17.89 135.79 17.72Q136.15 17.56 136.15 17.32L136.15 17.32Q136.15 17.11 136.01 16.88Q135.86 16.64 135.86 16.37L135.86 16.37Q135.86 15.98 136.07 15.60Q136.29 15.21 136.63 14.91Q136.97 14.61 137.41 14.42Q137.85 14.24 138.30 14.24L138.30 14.24Q138.87 14.24 139.34 14.46Q139.80 14.69 140.15 15.05Q140.49 15.41 140.67 15.88Q140.86 16.35 140.86 16.84L140.86 16.84Q140.86 18.13 139.91 19.06Q138.96 20 137.44 20.62Q135.92 21.23 134.00 21.53Q132.09 21.84 130.16 21.84L130.16 21.84Q127.89 21.84 126.02 21.53Q124.14 21.23 122.66 20.57Q121.17 19.90 120.10 18.84Q119.02 17.77 118.34 16.25L118.34 16.25Q118.11 15.80 117.83 15.80Z" transform="translate(242.86 104.328) scale(1.211)"></path><path fill="#a19d94" fill-rule="nonzero" d="M1.93 6.76L1.93 6.76Q1.68 6.80 1.50 6.82Q1.33 6.84 1.21 6.84L1.21 6.84Q0.55 6.80 0.27 6.46Q0 6.11 0 5.31L0 5.31Q0 3.73 1.52 3.32L1.52 3.32Q2.87 3.01 4.41 2.86Q5.96 2.71 7.85 2.71L7.85 2.71Q10.39 2.71 12.90 3.20Q15.41 3.69 17.69 4.54Q19.96 5.39 21.91 6.55Q23.87 7.71 25.30 9.07Q26.74 10.43 27.55 11.92Q28.36 13.42 28.36 14.92L28.36 14.92Q28.36 16.45 27.33 17.82Q26.31 19.20 24.57 20.25Q22.83 21.31 20.55 21.93Q18.26 22.56 15.76 22.56L15.76 22.56Q13.77 22.56 11.60 22.19Q9.43 21.82 6.82 21.00L6.82 21.00Q5.61 20.66 5.61 19.51L5.61 19.51Q5.61 19.26 5.72 19.04Q5.84 18.83 5.97 18.63Q6.09 18.44 6.21 18.25Q6.33 18.07 6.33 17.87L6.33 17.87Q6.33 16.76 6.22 15.49Q6.11 14.22 5.93 12.95Q5.74 11.68 5.50 10.52Q5.25 9.36 5 8.46Q4.75 7.56 4.48 7.02Q4.22 6.48 4.00 6.48L4.00 6.48Q3.67 6.48 3.19 6.56Q2.71 6.64 1.93 6.76ZM9.45 6.45L9.45 6.45Q8.89 6.45 8.89 6.84L8.89 6.84Q8.89 6.93 8.95 7.17Q9.00 7.40 9.12 7.91L9.12 7.91Q9.30 8.73 9.45 9.67Q9.61 10.61 9.77 11.77Q9.92 12.93 10.07 14.37Q10.21 15.80 10.37 17.60L10.37 17.60Q10.39 17.89 10.90 18.15Q11.41 18.42 12.25 18.62Q13.09 18.83 14.17 18.96Q15.25 19.08 16.41 19.08L16.41 19.08Q17.93 19.08 19.33 18.72Q20.72 18.36 21.79 17.75Q22.85 17.15 23.49 16.35Q24.12 15.55 24.12 14.69L24.12 14.69Q24.12 13.26 23.00 11.91Q21.88 10.57 19.90 9.46Q17.93 8.36 15.25 7.57Q12.58 6.78 9.45 6.45ZM31.41 16.88L31.41 16.88Q31.35 16.88 31.22 16.89Q31.09 16.91 30.95 16.93Q30.80 16.95 30.66 16.97Q30.53 16.99 30.45 16.99L30.45 16.99Q29.90 16.99 29.49 16.53Q29.08 16.07 29.08 15.31L29.08 15.31Q29.08 14.80 29.41 14.34Q29.75 13.87 30.45 13.55L30.45 13.55Q30.66 13.46 30.79 13.33Q30.92 13.20 30.92 12.97L30.92 12.97Q30.92 12.34 30.89 11.63Q30.86 10.92 30.80 9.96L30.80 9.96Q30.78 9.77 30.67 9.59Q30.57 9.41 30.44 9.19Q30.31 8.96 30.21 8.69Q30.12 8.42 30.12 8.01L30.12 8.01Q30.12 7.64 30.22 7.16Q30.33 6.68 30.67 6.26Q31.02 5.84 31.63 5.56Q32.25 5.27 33.24 5.27L33.24 5.27Q33.65 5.27 33.93 5.35Q34.20 5.43 34.40 5.54Q34.61 5.64 34.78 5.72Q34.94 5.80 35.12 5.80L35.12 5.80Q35.43 5.80 36.37 5.68Q37.30 5.57 38.62 5.35Q39.94 5.14 41.53 4.86Q43.13 4.59 44.77 4.27Q46.41 3.95 47.97 3.61Q49.53 3.28 50.80 2.97L50.80 2.97Q51.19 2.87 51.48 2.87L51.48 2.87Q51.89 2.87 52.14 3.06Q52.38 3.24 52.50 3.52Q52.62 3.79 52.65 4.13Q52.68 4.47 52.68 4.77L52.68 4.77Q52.68 5.27 52.33 5.71Q51.99 6.15 51.21 6.41L51.21 6.41Q49.28 6.97 47.31 7.39Q45.35 7.81 43.36 8.15Q41.37 8.50 39.36 8.77Q37.34 9.04 35.35 9.32L35.35 9.32Q35.08 9.36 34.94 9.52Q34.80 9.69 34.80 9.96L34.80 9.96L34.80 10.76Q34.80 11.09 34.82 11.45Q34.84 11.80 34.91 12.09Q34.98 12.38 35.10 12.57Q35.21 12.75 35.41 12.75L35.41 12.75Q35.88 12.75 36.87 12.56Q37.85 12.36 39.09 12.08Q40.33 11.80 41.69 11.46Q43.05 11.11 44.26 10.83Q45.47 10.55 46.39 10.35Q47.30 10.16 47.68 10.16L47.68 10.16Q48.22 10.16 48.51 10.56Q48.79 10.96 48.89 11.56L48.89 11.56Q48.89 11.66 48.91 11.74Q48.93 11.82 48.93 11.91L48.93 11.91Q48.93 12.48 48.58 12.96Q48.24 13.44 47.36 13.67L47.36 13.67Q47.13 13.75 46.43 13.92Q45.72 14.08 44.77 14.31Q43.81 14.53 42.70 14.79Q41.58 15.04 40.51 15.28Q39.43 15.53 38.51 15.75Q37.58 15.98 36.99 16.11L36.99 16.11Q36.46 16.25 36.36 16.33Q36.25 16.41 36.25 16.52L36.25 16.52Q36.29 16.95 36.69 17.32Q37.09 17.70 37.71 18.01Q38.32 18.32 39.09 18.57Q39.86 18.83 40.69 18.99Q41.52 19.16 42.32 19.26Q43.13 19.36 43.81 19.36L43.81 19.36Q44.10 19.36 44.65 19.36Q45.20 19.36 45.85 19.33Q46.50 19.30 47.20 19.24Q47.89 19.18 48.45 19.07Q49.00 18.96 49.37 18.80Q49.73 18.63 49.73 18.40L49.73 18.40Q49.73 18.18 49.58 17.95Q49.43 17.71 49.43 17.44L49.43 17.44Q49.43 17.05 49.65 16.67Q49.86 16.29 50.21 15.99Q50.55 15.68 50.99 15.50Q51.43 15.31 51.88 15.31L51.88 15.31Q52.44 15.31 52.91 15.54Q53.38 15.76 53.72 16.12Q54.06 16.48 54.25 16.95Q54.43 17.42 54.43 17.91L54.43 17.91Q54.43 19.20 53.49 20.14Q52.54 21.07 51.02 21.69Q49.49 22.30 47.58 22.61Q45.66 22.91 43.73 22.91L43.73 22.91Q41.46 22.91 39.59 22.61Q37.71 22.30 36.23 21.64Q34.75 20.98 33.67 19.91Q32.60 18.85 31.91 17.32L31.91 17.32Q31.68 16.88 31.41 16.88ZM58.73 13.67L58.73 13.67Q58.73 14.84 59.31 15.85Q59.88 16.86 60.82 17.61Q61.76 18.36 62.97 18.78Q64.18 19.20 65.45 19.20L65.45 19.20Q65.84 19.20 66.25 19.13Q66.66 19.06 66.99 18.89Q67.32 18.71 67.54 18.43Q67.75 18.14 67.75 17.71L67.75 17.71Q67.75 16.89 67.18 16.09Q66.60 15.29 65.66 14.50Q64.73 13.71 63.52 12.92Q62.30 12.13 61.05 11.35Q59.80 10.57 58.59 9.78Q57.38 8.98 56.45 8.19Q55.51 7.40 54.93 6.59Q54.36 5.78 54.36 4.96L54.36 4.96Q54.36 4.18 54.76 3.51Q55.16 2.83 55.82 2.29Q56.48 1.74 57.36 1.31Q58.24 0.88 59.20 0.59Q60.16 0.29 61.12 0.15Q62.09 0 62.97 0L62.97 0Q63.61 0 64.38 0.03Q65.16 0.06 65.83 0.21Q66.50 0.35 66.95 0.64Q67.40 0.94 67.40 1.48L67.40 1.48Q67.40 1.66 67.34 1.92Q67.29 2.19 67.01 2.79L67.01 2.79Q66.74 3.36 66.38 3.64Q66.02 3.93 65.45 3.93L65.45 3.93Q64.65 3.93 63.76 3.74Q62.87 3.55 61.97 3.55L61.97 3.55Q61.48 3.55 60.99 3.60Q60.49 3.65 60.08 3.78Q59.67 3.91 59.41 4.15Q59.16 4.39 59.16 4.77L59.16 4.77Q59.16 5.14 59.70 5.61Q60.23 6.07 61.12 6.64Q62.01 7.21 63.14 7.88Q64.28 8.55 65.46 9.33Q66.64 10.10 67.77 10.97Q68.91 11.84 69.79 12.80Q70.68 13.77 71.22 14.84Q71.76 15.92 71.76 17.07L71.76 17.07Q71.76 18.48 71.11 19.55Q70.47 20.63 69.45 21.35Q68.44 22.07 67.21 22.43Q65.98 22.79 64.80 22.79L64.80 22.79Q63.61 22.79 62.39 22.51Q61.17 22.23 60.04 21.71Q58.91 21.19 57.92 20.46Q56.93 19.73 56.21 18.82Q55.49 17.91 55.07 16.86Q54.65 15.80 54.65 14.65L54.65 14.65Q54.65 14.16 54.72 13.66Q54.79 13.16 54.96 12.78Q55.14 12.40 55.45 12.16Q55.76 11.91 56.25 11.91L56.25 11.91Q56.41 11.91 56.60 11.94Q56.80 11.97 57.29 12.13L57.29 12.13Q57.85 12.30 58.29 12.69Q58.73 13.07 58.73 13.67Z" transform="translate(242.86 141.249) scale(2.377)"></path><path fill="#a19d94" fill-rule="nonzero" d="M9.12 4.69L9.12 4.69Q8.03 4.69 7.10 5.21Q6.17 5.72 5.48 6.63Q4.79 7.54 4.39 8.77Q4.00 10 4.00 11.41L4.00 11.41Q4.00 12.85 4.66 14.07Q5.31 15.29 6.47 16.20Q7.64 17.11 9.21 17.62Q10.78 18.13 12.64 18.13L12.64 18.13Q13.98 18.13 15.19 17.88Q16.39 17.64 17.29 17.23Q18.18 16.82 18.71 16.26Q19.24 15.70 19.24 15.08L19.24 15.08Q19.24 14.59 19.06 14.27Q18.89 13.95 18.66 13.68Q18.44 13.42 18.26 13.15Q18.09 12.89 18.09 12.48L18.09 12.48Q18.09 12.09 18.28 11.74Q18.48 11.39 18.82 11.11Q19.16 10.84 19.60 10.68Q20.04 10.53 20.51 10.53L20.51 10.53Q21.07 10.53 21.57 10.82Q22.07 11.11 22.43 11.63Q22.79 12.15 23.00 12.84Q23.20 13.54 23.20 14.32L23.20 14.32Q23.20 15.90 22.36 17.26Q21.52 18.61 20.04 19.59Q18.55 20.57 16.52 21.12Q14.49 21.68 12.11 21.68L12.11 21.68Q9.47 21.68 7.25 20.97Q5.02 20.25 3.41 18.98Q1.80 17.71 0.90 15.98Q0 14.24 0 12.17L0 12.17Q0 9.90 0.79 7.89Q1.58 5.88 2.95 4.38Q4.32 2.87 6.14 1.99Q7.97 1.11 10.04 1.11L10.04 1.11Q10.96 1.11 11.73 1.32Q12.50 1.52 13.07 1.89Q13.63 2.27 13.96 2.76Q14.28 3.26 14.28 3.85L14.28 3.85Q14.28 4.32 14.07 4.74Q13.87 5.16 13.54 5.48Q13.20 5.80 12.76 6.00Q12.32 6.19 11.84 6.19L11.84 6.19Q11.33 6.19 11.03 5.96Q10.72 5.72 10.47 5.44Q10.21 5.16 9.92 4.92Q9.63 4.69 9.12 4.69ZM31.80 24.16L31.80 24.16Q29.67 24.16 27.88 23.44Q26.09 22.71 24.80 21.42Q23.52 20.12 22.79 18.32Q22.07 16.52 22.07 14.36L22.07 14.36Q22.07 13.18 22.28 12.10Q22.48 11.02 22.83 10.08L22.83 10.08Q22.99 9.71 22.99 9.55L22.99 9.55Q22.99 9.36 22.89 9.18Q22.79 9.00 22.68 8.81Q22.56 8.61 22.46 8.40Q22.36 8.18 22.36 7.91L22.36 7.91Q22.36 7.09 23.30 6.30Q24.24 5.51 25.78 4.89Q27.32 4.28 29.28 3.90Q31.23 3.52 33.28 3.52L33.28 3.52Q35.80 3.52 37.82 4.16Q39.84 4.80 41.26 6.01Q42.68 7.21 43.44 8.93Q44.20 10.64 44.20 12.79L44.20 12.79Q44.20 15.20 43.24 17.28Q42.29 19.36 40.62 20.88Q38.95 22.40 36.68 23.28Q34.41 24.16 31.80 24.16ZM40.27 13.55L40.27 13.55Q40.27 12.03 39.75 10.82Q39.22 9.61 38.22 8.78Q37.23 7.95 35.77 7.51Q34.32 7.07 32.48 7.07L32.48 7.07Q29.26 7.07 27.63 8.70Q26.00 10.33 26.00 13.55L26.00 13.55Q26.00 15.12 26.48 16.42Q26.97 17.71 27.85 18.64Q28.73 19.57 29.95 20.09Q31.17 20.61 32.64 20.61L32.64 20.61Q34.32 20.61 35.72 20.09Q37.13 19.57 38.13 18.63Q39.14 17.70 39.71 16.40Q40.27 15.10 40.27 13.55ZM54.88 4.69L54.88 4.69Q53.79 4.69 52.86 5.21Q51.93 5.72 51.24 6.63Q50.55 7.54 50.16 8.77Q49.77 10 49.77 11.41L49.77 11.41Q49.77 12.85 50.42 14.07Q51.07 15.29 52.24 16.20Q53.40 17.11 54.97 17.62Q56.54 18.13 58.40 18.13L58.40 18.13Q59.75 18.13 60.95 17.88Q62.15 17.64 63.05 17.23Q63.95 16.82 64.47 16.26Q65 15.70 65 15.08L65 15.08Q65 14.59 64.82 14.27Q64.65 13.95 64.42 13.68Q64.20 13.42 64.02 13.15Q63.85 12.89 63.85 12.48L63.85 12.48Q63.85 12.09 64.04 11.74Q64.24 11.39 64.58 11.11Q64.92 10.84 65.36 10.68Q65.80 10.53 66.27 10.53L66.27 10.53Q66.84 10.53 67.33 10.82Q67.83 11.11 68.19 11.63Q68.55 12.15 68.76 12.84Q68.96 13.54 68.96 14.32L68.96 14.32Q68.96 15.90 68.13 17.26Q67.29 18.61 65.80 19.59Q64.32 20.57 62.29 21.12Q60.25 21.68 57.87 21.68L57.87 21.68Q55.23 21.68 53.01 20.97Q50.78 20.25 49.17 18.98Q47.56 17.71 46.66 15.98Q45.76 14.24 45.76 12.17L45.76 12.17Q45.76 9.90 46.55 7.89Q47.34 5.88 48.71 4.38Q50.08 2.87 51.90 1.99Q53.73 1.11 55.80 1.11L55.80 1.11Q56.72 1.11 57.49 1.32Q58.26 1.52 58.83 1.89Q59.39 2.27 59.72 2.76Q60.04 3.26 60.04 3.85L60.04 3.85Q60.04 4.32 59.83 4.74Q59.63 5.16 59.30 5.48Q58.96 5.80 58.53 6.00Q58.09 6.19 57.60 6.19L57.60 6.19Q57.09 6.19 56.79 5.96Q56.48 5.72 56.23 5.44Q55.98 5.16 55.68 4.92Q55.39 4.69 54.88 4.69ZM85.92 3.24L85.92 3.24Q85.92 4.00 85.42 4.67Q84.92 5.33 84.17 5.96Q83.42 6.58 82.54 7.17Q81.66 7.75 80.91 8.36Q80.16 8.96 79.66 9.59Q79.16 10.21 79.16 10.92L79.16 10.92Q79.16 11.50 79.98 12.05Q80.80 12.60 82.34 13.14Q83.89 13.69 86.07 14.27Q88.26 14.84 91.00 15.49L91.00 15.49Q92.36 15.86 92.36 16.88L92.36 16.88Q92.36 17.27 92.18 17.64Q91.99 18.01 91.68 18.29Q91.37 18.57 90.97 18.75Q90.57 18.93 90.16 18.93L90.16 18.93Q89.18 18.93 87.94 18.63Q86.70 18.34 85.37 17.91Q84.04 17.48 82.71 16.96Q81.39 16.45 80.22 16.02Q79.06 15.59 78.17 15.29Q77.29 15 76.84 15L76.84 15Q76.48 15 76.16 15.32Q75.84 15.64 75.58 16.21Q75.31 16.78 75.14 17.55Q74.96 18.32 74.88 19.24L74.88 19.24Q74.79 20.27 74.15 20.77Q73.52 21.27 72.40 21.27L72.40 21.27Q71.25 21.27 71.07 20.20L71.07 20.20Q70.78 18.55 70.36 16.86Q69.94 15.16 69.44 13.46Q68.95 11.76 68.37 10.10Q67.79 8.44 67.17 6.91L67.17 6.91Q67.01 6.58 66.94 6.30Q66.88 6.02 66.88 5.72L66.88 5.72Q66.88 5.47 67.03 5.24Q67.19 5.02 67.46 4.84Q67.73 4.67 68.10 4.57Q68.46 4.47 68.85 4.47L68.85 4.47Q69.65 4.47 70.12 4.80Q70.59 5.14 71.07 5.80L71.07 5.80Q71.31 6.11 71.52 6.63Q71.74 7.15 71.93 7.73Q72.13 8.32 72.32 8.92Q72.52 9.51 72.71 9.99Q72.89 10.47 73.08 10.77Q73.26 11.07 73.44 11.07L73.44 11.07Q73.59 11.07 73.70 10.94Q73.81 10.80 73.96 10.53L73.96 10.53Q74.98 8.42 76.19 6.67Q77.40 4.92 78.67 3.68Q79.94 2.44 81.22 1.76Q82.50 1.07 83.67 1.07L83.67 1.07Q84.14 1.07 84.55 1.24Q84.96 1.41 85.26 1.70Q85.57 1.99 85.74 2.39Q85.92 2.79 85.92 3.24ZM93.79 5.49L93.79 5.49Q93.63 5.49 93.19 5.56Q92.75 5.63 92.17 5.72Q91.58 5.82 90.94 5.95Q90.29 6.07 89.73 6.17Q89.16 6.27 88.74 6.34Q88.32 6.41 88.18 6.41L88.18 6.41Q86.88 6.41 86.88 5.04L86.88 5.04Q86.88 4.67 86.94 4.31Q87.01 3.95 87.19 3.64Q87.36 3.34 87.66 3.13Q87.95 2.91 88.40 2.83L88.40 2.83Q90.68 2.48 92.95 2.09Q95.21 1.70 97.52 1.27L97.52 1.27Q98.03 1.17 98.44 1.08Q98.85 1.00 99.36 0.84L99.36 0.84Q99.90 0.68 100.55 0.54Q101.19 0.39 101.85 0.27Q102.50 0.16 103.12 0.08Q103.73 0 104.24 0L104.24 0Q104.86 0 105.19 0.40Q105.51 0.80 105.51 1.52L105.51 1.52Q105.51 1.89 105.45 2.24Q105.39 2.58 105.23 2.85Q105.08 3.13 104.80 3.30Q104.53 3.48 104.10 3.52L104.10 3.52Q102.99 3.67 101.72 3.90Q100.45 4.12 99.51 4.39L99.51 4.39Q99.12 4.51 98.93 4.78Q98.73 5.04 98.67 5.43L98.67 5.43Q98.61 5.80 98.60 6.18Q98.59 6.56 98.59 6.91L98.59 6.91Q98.59 7.73 98.66 8.55Q98.73 9.38 98.79 10.20L98.79 10.20Q98.96 13.01 99.33 15.76Q99.69 18.52 100.12 21.33L100.12 21.33Q100.16 21.43 100.16 21.52Q100.16 21.62 100.16 21.72L100.16 21.72Q100.16 22.79 98.95 23.24L98.95 23.24L98.07 23.52Q97.71 23.63 97.38 23.63L97.38 23.63Q96.88 23.63 96.56 23.31Q96.25 22.99 96.15 22.36L96.15 22.36Q95.61 19.00 95.20 15.67Q94.79 12.34 94.67 8.96L94.67 8.96Q94.63 8.42 94.61 7.77Q94.59 7.13 94.59 6.45L94.59 6.45Q94.59 5.49 93.79 5.49ZM105.63 17.83L105.37 17.83Q105.04 17.83 104.87 17.50Q104.71 17.17 104.71 16.56L104.71 16.56Q104.71 16.46 104.71 16.34Q104.71 16.21 104.75 15.84L104.75 15.84Q104.80 14.43 106.13 14.20L106.13 14.20L106.58 14.16Q107.03 14.10 107.29 13.88Q107.54 13.65 107.66 13.24L107.66 13.24Q107.99 12.13 108.32 11.00Q108.65 9.86 109.02 8.75L109.02 8.75Q109.22 8.13 109.42 7.41Q109.63 6.70 109.87 6.00Q110.12 5.29 110.44 4.61Q110.76 3.93 111.17 3.36L111.17 3.36Q111.35 3.13 111.66 2.87Q111.97 2.62 112.37 2.41Q112.77 2.21 113.23 2.08Q113.69 1.95 114.14 1.95L114.14 1.95Q114.73 1.95 115.29 2.32L115.29 2.32Q116.05 2.85 116.80 3.59Q117.54 4.34 118.46 5.49Q119.38 6.64 120.59 8.27Q121.80 9.90 123.50 12.21L123.50 12.21Q123.75 12.50 124.03 12.65Q124.32 12.79 124.71 12.79L124.71 12.79L125.82 12.79Q126.50 12.79 126.88 13.12Q127.27 13.44 127.27 14.00L127.27 14.00Q127.27 14.12 127.26 14.28Q127.25 14.43 127.19 14.59L127.19 14.59L126.82 15.68Q126.78 15.84 126.76 15.96Q126.74 16.07 126.74 16.19L126.74 16.19Q126.74 16.60 127.01 17.03L127.01 17.03L129.10 19.88Q129.45 20.41 129.45 20.88L129.45 20.88Q129.45 21.58 128.65 22.11L128.65 22.11L127.91 22.64Q127.64 22.81 127.39 22.91Q127.15 23.01 126.89 23.01L126.89 23.01Q126.54 23.01 126.24 22.80Q125.94 22.60 125.66 22.25L125.66 22.25Q124.73 20.92 123.78 19.63Q122.83 18.34 121.86 17.07L121.86 17.07Q121.41 16.45 120.66 16.45L120.66 16.45Q118.28 16.54 115.95 16.71Q113.61 16.88 111.27 17.11L111.27 17.11Q110.43 17.19 110.21 18.01L110.21 18.01L109.34 21.23Q108.98 22.52 107.77 22.52L107.77 22.52L107.46 22.52L106.86 22.44Q106.19 22.38 105.85 22.03Q105.51 21.68 105.51 21.11L105.51 21.11Q105.51 21.00 105.53 20.86Q105.55 20.72 105.59 20.57L105.59 20.57Q105.68 20.18 105.79 19.77Q105.90 19.36 106.02 18.96L106.02 18.96Q106.05 18.81 106.07 18.68Q106.09 18.55 106.09 18.44L106.09 18.44Q106.09 17.83 105.63 17.83L105.63 17.83ZM114.67 7.52L114.67 7.52Q114.47 7.34 114.32 7.23Q114.16 7.11 113.98 7.11L113.98 7.11Q113.50 7.11 113.30 7.79L113.30 7.79Q112.91 8.95 112.55 10.07Q112.19 11.19 111.82 12.36L111.82 12.36Q111.78 12.46 111.78 12.54Q111.78 12.62 111.78 12.71L111.78 12.71Q111.78 13.44 112.54 13.44L112.54 13.44L112.73 13.44Q113.91 13.28 115.08 13.19Q116.25 13.11 117.42 13.05L117.42 13.05Q117.81 13.01 118.04 12.84Q118.26 12.68 118.26 12.40L118.26 12.40Q118.26 12.15 118.03 11.80L118.03 11.80Q117.21 10.70 116.38 9.64Q115.55 8.57 114.67 7.52ZM129.73 3.48L129.73 3.48Q129.73 3.13 129.90 2.82Q130.08 2.52 130.39 2.29Q130.70 2.07 131.12 1.93Q131.54 1.80 132.01 1.80L132.01 1.80Q132.93 1.80 133.36 2.09Q133.79 2.38 133.89 3.01L133.89 3.01Q134.22 5.61 134.44 7.92Q134.67 10.23 134.80 12.33Q134.94 14.43 135 16.36Q135.06 18.28 135.06 20.08L135.06 20.08Q135.06 21.05 134.37 21.54Q133.67 22.03 132.34 22.03L132.34 22.03Q131.74 22.03 131.40 21.75Q131.05 21.46 131.05 20.92L131.05 20.92Q131.05 17.56 130.85 14.62Q130.64 11.68 130.39 9.39Q130.14 7.11 129.93 5.58Q129.73 4.04 129.73 3.48ZM144.02 23.05L144.02 23.05Q143.46 23.14 143.01 23.27Q142.56 23.40 141.89 23.40L141.89 23.40Q141.17 23.40 140.78 22.99Q140.39 22.58 140.39 22.07L140.39 22.07Q140.39 21.66 140.53 21.01Q140.66 20.35 140.66 19.69L140.66 19.69Q140.53 17.17 140.30 14.70Q140.08 12.23 139.86 10.18Q139.65 8.13 139.49 6.67Q139.34 5.21 139.34 4.69L139.34 4.69Q139.34 4.34 139.51 4.03Q139.69 3.73 140 3.50Q140.31 3.26 140.73 3.13Q141.15 3.01 141.62 3.01L141.62 3.01Q142.54 3.01 142.97 3.29Q143.40 3.57 143.50 4.20L143.50 4.20Q144.04 8.40 144.29 11.90Q144.53 15.41 144.63 18.48L144.63 18.48Q144.63 18.93 144.87 19.16Q145.12 19.39 145.51 19.39L145.51 19.39Q146.29 19.39 147.09 19.31Q147.89 19.22 148.69 19.12Q149.49 19.02 150.28 18.94Q151.07 18.85 151.82 18.85L151.82 18.85Q152.30 18.85 152.61 18.96Q152.91 19.08 153.08 19.28Q153.24 19.47 153.29 19.72Q153.34 19.96 153.34 20.20L153.34 20.20Q153.34 20.57 153.26 20.94Q153.18 21.31 152.99 21.61Q152.79 21.91 152.46 22.12Q152.13 22.32 151.62 22.36L151.62 22.36Q149.22 22.60 147.24 22.71Q145.25 22.83 144.02 23.05ZM157.52 13.71L157.52 13.71Q157.52 14.88 158.10 15.89Q158.67 16.89 159.61 17.65Q160.55 18.40 161.76 18.82Q162.97 19.24 164.24 19.24L164.24 19.24Q164.63 19.24 165.04 19.17Q165.45 19.10 165.78 18.93Q166.11 18.75 166.33 18.47Q166.54 18.18 166.54 17.75L166.54 17.75Q166.54 16.93 165.97 16.13Q165.39 15.33 164.45 14.54Q163.52 13.75 162.30 12.96Q161.09 12.17 159.84 11.39Q158.59 10.61 157.38 9.81Q156.17 9.02 155.23 8.23Q154.30 7.44 153.72 6.63Q153.14 5.82 153.14 5L153.14 5Q153.14 4.22 153.54 3.54Q153.95 2.87 154.61 2.32Q155.27 1.78 156.15 1.35Q157.03 0.92 157.99 0.63Q158.95 0.33 159.91 0.19Q160.88 0.04 161.76 0.04L161.76 0.04Q162.40 0.04 163.17 0.07Q163.95 0.10 164.62 0.24Q165.29 0.39 165.74 0.68Q166.19 0.98 166.19 1.52L166.19 1.52Q166.19 1.70 166.13 1.96Q166.07 2.23 165.80 2.83L165.80 2.83Q165.53 3.40 165.17 3.68Q164.80 3.96 164.24 3.96L164.24 3.96Q163.44 3.96 162.55 3.78Q161.66 3.59 160.76 3.59L160.76 3.59Q160.27 3.59 159.78 3.64Q159.28 3.69 158.87 3.82Q158.46 3.95 158.20 4.19Q157.95 4.43 157.95 4.80L157.95 4.80Q157.95 5.18 158.49 5.64Q159.02 6.11 159.91 6.68Q160.80 7.25 161.93 7.92Q163.07 8.59 164.25 9.37Q165.43 10.14 166.56 11.01Q167.70 11.88 168.58 12.84Q169.47 13.81 170.01 14.88Q170.55 15.96 170.55 17.11L170.55 17.11Q170.55 18.52 169.90 19.59Q169.26 20.66 168.24 21.39Q167.23 22.11 166.00 22.47Q164.77 22.83 163.59 22.83L163.59 22.83Q162.40 22.83 161.18 22.55Q159.96 22.27 158.83 21.75Q157.70 21.23 156.71 20.50Q155.72 19.77 155 18.86Q154.28 17.95 153.86 16.89Q153.44 15.84 153.44 14.69L153.44 14.69Q153.44 14.20 153.51 13.70Q153.57 13.20 153.75 12.82Q153.93 12.44 154.24 12.20Q154.55 11.95 155.04 11.95L155.04 11.95Q155.20 11.95 155.39 11.98Q155.59 12.01 156.07 12.17L156.07 12.17Q156.64 12.34 157.08 12.72Q157.52 13.11 157.52 13.71Z" transform="translate(242.86 203.7) scale(1)"></path></svg>